<?xml version="1.0" standalone="no"?>
<!DOCTYPE svg PUBLIC "-//W3C//DTD SVG 20010904//EN"
 "http://www.w3.org/TR/2001/REC-SVG-20010904/DTD/svg10.dtd">
<svg version="1.0" xmlns="http://www.w3.org/2000/svg"
 width="700.000000pt" height="700.000000pt" viewBox="0 0 700.000000 700.000000"
 preserveAspectRatio="xMidYMid meet">
<metadata>
Created by potrace 1.11, written by Peter Selinger 2001-2013
</metadata>
<g transform="translate(0.000000,700.000000) scale(0.100000,-0.100000)"
fill="#000000" stroke="none">
<path d="M3378 6415 c-2 -1 -50 -5 -108 -9 -124 -8 -139 -10 -295 -37 -126
-23 -336 -76 -420 -108 -176 -66 -234 -91 -355 -151 -293 -146 -524 -313 -760
-549 -150 -151 -254 -276 -354 -426 -36 -55 -70 -105 -75 -111 -17 -21 -117
-212 -163 -310 -112 -242 -207 -566 -234 -799 -4 -27 -8 -52 -9 -55 -8 -13
-19 -227 -19 -360 0 -225 11 -345 50 -545 142 -746 566 -1403 1189 -1841 423
-298 926 -480 1440 -522 149 -12 537 -4 587 13 7 2 36 6 63 9 249 27 615 140
872 269 315 159 544 324 787 570 455 461 723 1010 821 1680 18 128 25 437 12
597 -68 876 -538 1684 -1267 2181 -164 112 -391 234 -545 293 -38 15 -79 31
-90 36 -45 20 -253 81 -358 104 -112 25 -265 49 -387 62 -62 6 -376 14 -382 9z
m257 -589 c72 -3 141 -7 155 -10 31 -5 120 -19 140 -22 92 -11 355 -91 495
-151 156 -67 398 -208 496 -291 179 -149 252 -219 354 -338 l65 -77 -71 -24
c-139 -46 -251 -117 -351 -219 -160 -165 -235 -344 -253 -604 -4 -64 -12 -98
-32 -138 -88 -175 -318 -213 -458 -76 -58 56 -83 112 -90 200 -12 166 -29 245
-72 346 -110 257 -326 442 -594 509 -60 15 -127 22 -234 25 -82 2 -167 6 -187
9 -123 17 -238 92 -304 197 -55 86 -66 139 -68 321 -1 92 1 172 4 177 4 6 51
26 106 44 203 70 407 111 614 123 58 3 106 7 108 8 1 1 12 1 25 -1 12 -2 81
-5 152 -8z m-1587 -538 c17 -251 183 -546 397 -703 22 -17 42 -33 45 -36 3 -3
10 -8 15 -10 6 -2 40 -21 76 -41 82 -47 253 -103 344 -113 39 -4 131 -9 205
-10 152 -3 199 -15 264 -69 23 -19 54 -56 68 -83 27 -49 32 -74 43 -217 16
-196 111 -399 254 -544 96 -96 264 -191 401 -226 36 -10 110 -20 165 -23 89
-5 128 -2 265 23 95 16 261 105 360 191 183 158 294 398 301 645 4 148 96 270
222 294 48 9 174 12 186 5 15 -9 85 -214 106 -307 34 -156 41 -192 50 -274 3
-30 8 -73 10 -95 6 -46 6 -355 0 -400 -2 -16 -7 -57 -11 -90 -3 -33 -8 -69
-10 -80 -2 -11 -8 -45 -14 -75 -22 -122 -113 -418 -129 -421 -3 -1 -181 -2
-396 -3 -415 -2 -434 -4 -564 -42 -320 -96 -563 -381 -609 -713 -3 -25 -6
-178 -6 -338 l-1 -292 -90 -21 c-82 -18 -164 -31 -284 -44 -57 -7 -201 -10
-206 -5 -2 2 -5 166 -8 364 -4 330 -6 366 -26 437 -81 288 -289 511 -568 606
-71 25 -165 41 -271 48 -127 7 -215 62 -270 169 -25 49 -26 56 -28 260 -2 249
-7 302 -41 409 -88 285 -309 502 -590 581 -112 31 -188 40 -340 40 l-122 0 6
25 c12 52 77 238 110 315 105 246 276 500 470 700 72 74 204 195 213 195 3 0
7 -15 8 -32z m-467 -1816 c59 -29 115 -85 142 -142 20 -41 22 -68 28 -295 7
-273 9 -285 46 -395 47 -138 109 -238 212 -341 156 -155 343 -239 566 -254 50
-3 113 -12 141 -20 69 -20 144 -87 175 -157 22 -51 23 -62 23 -338 l1 -285
-25 3 c-41 6 -229 72 -322 113 -329 145 -650 387 -863 650 -33 41 -62 76 -65
79 -22 20 -158 234 -203 320 -170 319 -280 758 -268 1068 l1 24 183 -4 c165
-3 186 -5 228 -26z m3735 -1434 c11 -12 -239 -263 -351 -353 -100 -81 -289
-205 -295 -195 -10 16 -1 312 11 348 35 106 122 180 237 200 40 6 391 6 398 0z"/>
</g>
</svg>
